<svg xmlns="http://www.w3.org/2000/svg" version="1.1" xmlns:xlink="http://www.w3.org/1999/xlink"
    viewBox="466 0 568 98">
    <svg xml:space="preserve" width="1500" height="98" data-version="2"
        data-id="lg_tu1Dy02v61ySSOlHuJ" viewBox="0 0 568 98" x="0" y="0"><rect width="100%" height="100%" fill="transparent"></rect><path fill="white" d="M138.26 75.213v-58.55h15.7q5.97 0 10.84 1.81 4.87 1.8 7.77 6.27 2.9 4.48 2.9 12.42 0 5.75-2.19 10.85-2.18 5.11-6.86 8.3-4.69 3.19-12.12 3.19h-5.21v15.71Zm15.03-50.07h-4.2v25.54h4.45q5.55 0 8.32-3.32 2.77-3.32 2.77-9.62 0-6.42-2.52-9.51t-8.82-3.09"></path><rect width="37.21" height="58.55" x="-18.61" y="-29.27" fill="none" rx="0" ry="0" transform="translate(157.37 46.44)"></rect><path fill="white" d="M191.05 76.383q-3.86 0-6.4-1.72-2.55-1.72-3.78-4.58-1.24-2.85-1.24-6.3 0-1.93.98-4.24.99-2.31 3.51-4.41 2.52-2.1 7.1-3.44 4.58-1.35 11.76-1.35v-1.93q0-3.11-1.49-5.16-1.49-2.06-5.99-2.06-3.27 0-6.4 1.11-3.13 1.11-4.6 2.75l-3.36-8.06q2.52-1.72 6.74-3.17 4.22-1.45 9.39-1.45 6.21 0 9.66 1.89 3.44 1.89 4.83 5.35 1.38 3.47 1.38 8.13v27.47h-8.99l-.75-5.97q-4.37 7.14-12.35 7.14m4.45-8.06q1.89 0 4.06-1.53 2.16-1.54 3.42-3.93v-5.96q-.42-.09-.9-.09h-1.12q-2.31 0-4.85.53-2.54.52-4.3 1.82-1.77 1.31-1.77 3.62 0 3.02 1.35 4.28 1.34 1.26 4.11 1.26"></path><rect width="33.51" height="44.01" x="-16.75" y="-22" fill="none" rx="0" ry="0" transform="translate(196.88 54.88)"></rect><path fill="white" d="M222.68 93.523v-60.14h9.99v1.34l-.84 5.88q.51-2.39 2.29-4.28 1.79-1.89 4.37-2.97 2.58-1.07 5.44-1.07 8.31 0 12.14 5.82 3.82 5.82 3.82 15.6 0 10.97-4.64 16.82-4.64 5.86-12.16 5.86-4.66 0-7.46-2.89-2.79-2.9-3.8-6.6l1.01 7.9v18.73Zm17.97-25.45q2.02 0 3.91-1.37 1.89-1.36 3.11-4.43 1.21-3.06 1.21-8.15 0-7.05-2.41-10.16-2.42-3.11-5.65-3.11-3.91 0-5.94 4.01-2.04 4.01-2.04 9.94 0 5.92 2.08 9.59 2.08 3.68 5.73 3.68"></path><rect width="37.21" height="61.24" x="-18.61" y="-30.62" fill="none" rx="0" ry="0" transform="translate(241.78 63.4)"></rect><path fill="white" d="M280.76 76.223q-6.34 0-9.34-4.06-3.01-4.05-3.01-11.15v-27.63h10.5v26.71q0 3.44 1.26 5.63 1.26 2.18 4.29 2.18 2.98 0 4.98-2.18 1.99-2.19 1.99-5.63v-26.71h10.5v41.83h-9.49l-.21-5.42q-1.56 2.48-4.22 4.45-2.67 1.98-7.25 1.98"></path><rect width="33.52" height="42.84" x="-16.76" y="-21.42" fill="none" rx="0" ry="0" transform="translate(285.67 55.3)"></rect><path fill="white" d="M311.84 75.213v-41.83h9.66l.25 5.54q1.64-2.52 4.56-4.54 2.92-2.01 7.79-2.01 4.24 0 7.06 1.89 2.81 1.89 4.24 5.33 1.6-2.64 4.6-4.93 3-2.29 8.38-2.29 6.3 0 9.41 4.03 3.1 4.03 3.1 11.17v27.64h-10.66v-26.55q0-3.48-1.35-5.65-1.34-2.16-4.37-2.16-2.94 0-5.33 2.16-2.39 2.17-2.39 5.65v26.55h-10.76v-26.55q0-3.48-1.53-5.73-1.53-2.25-4.51-2.25-3.03 0-5.21 2.25-2.19 2.25-2.19 5.73v26.55Z"></path><rect width="59.05" height="42.84" x="-29.52" y="-21.42" fill="none" rx="0" ry="0" transform="translate(341.87 54.3)"></rect><path fill="white" d="M390.21 76.383q-3.86 0-6.4-1.72-2.54-1.72-3.78-4.58-1.24-2.85-1.24-6.3 0-1.93.99-4.24.98-2.31 3.5-4.41t7.1-3.44q4.58-1.35 11.76-1.35v-1.93q0-3.11-1.49-5.16-1.49-2.06-5.98-2.06-3.28 0-6.41 1.11-3.13 1.11-4.6 2.75l-3.36-8.06q2.52-1.72 6.74-3.17 4.22-1.45 9.39-1.45 6.22 0 9.66 1.89 3.44 1.89 4.83 5.35 1.39 3.47 1.39 8.13v27.47h-8.99l-.76-5.97q-4.37 7.14-12.35 7.14m4.46-8.06q1.89 0 4.05-1.53 2.16-1.54 3.42-3.93v-5.96q-.42-.09-.9-.09h-1.11q-2.31 0-4.85.53-2.55.52-4.31 1.82-1.76 1.31-1.76 3.62 0 3.02 1.34 4.28 1.34 1.26 4.12 1.26"></path><rect width="33.52" height="44.01" x="-16.76" y="-22" fill="none" rx="0" ry="0" transform="translate(396.05 54.88)"></rect><path fill="white" d="M421.67 75.213v-41.83h9.49l.51 7.39q.67-1.64 2.08-3.49 1.4-1.85 3.9-3.13 2.5-1.28 6.45-1.28 1.22 0 2.14.17.93.17 1.72.5l-2.35 11.01q-1.34-1.35-4.11-1.35-3.24 0-5.3 1.33-2.05 1.32-3.04 2.96-.99 1.64-.99 2.52v25.2Z"></path><rect width="26.29" height="42.34" x="-13.14" y="-21.17" fill="none" rx="0" ry="0" transform="translate(435.31 54.54)"></rect><path fill="white" d="M453.59 75.213v-63.84h9.91v31.33l-.33 9.83 12.85-19.15h11.93l-14.62 19.23 16.05 22.6h-12.69l-13.52-20.25.33 10.25v10Z"></path><rect width="35.79" height="63.84" x="-17.89" y="-31.92" fill="none" rx="0" ry="0" transform="translate(471.99 43.8)"></rect><path fill="white" d="M511.05 76.303q-7.06 0-11.38-2.96-4.33-2.96-6.3-7.86-1.98-4.89-1.98-10.68 0-6.09 2.25-11.2 2.25-5.1 6.59-8.17 4.35-3.06 10.65-3.06 9.41 0 13.15 5.44 3.73 5.44 3.73 15.39 0 .88-.04 2.23-.04 1.34-.12 2.31h-25.2q.25 4.95 2.79 7.77 2.54 2.81 7.62 2.81 2.61 0 5.59-1.16 2.98-1.15 4.41-2.79l3.36 7.98q-1.68 1.14-5.31 2.54-3.64 1.41-9.81 1.41m-8.74-25.12h14.79q0-4.41-.78-6.74t-2.12-3.21q-1.35-.88-3.07-.88-4.28 0-6.42 3.17-2.15 3.17-2.4 7.66"></path><rect width="36.37" height="43.93" x="-18.18" y="-21.96" fill="none" rx="0" ry="0" transform="translate(510.07 54.84)"></rect><path fill="white" d="M550.44 76.473q-7.09 0-9.59-3.7-2.5-3.69-2.5-11.17v-19.4h-5.46v-8.82h5.88l.59-8.82 9.15-3.95v12.77h10.33v8.82h-10.33v19.15q0 3.65 1.03 5.06 1.03 1.41 2.84 1.41 1.84 0 3.9-.97 2.06-.97 3.24-1.97l2.01 8.48q-1.3.92-3.38 1.62-2.08.69-4.2 1.09-2.12.4-3.51.4"></path><rect width="28.64" height="55.86" x="-14.32" y="-27.93" fill="none" rx="0" ry="0" transform="translate(547.71 49.04)"></rect><path fill="white" d="M88.294 31.664a1.926 1.926 0 0 1-1.79-2.63c1.247-3.19 2.168-8.198.658-9.296a1.918 1.918 0 0 1-.424-2.69 1.918 1.918 0 0 1 2.689-.423c2.612 1.9 2.647 5.659 2.084 8.822 1.356-1.48 2.562-3.772 2.562-7.266 0-8.186-8.587-13.483-11.557-13.483-6.04 0-21.215 7.975-31.242 20.468a1.926 1.926 0 1 1-3.005-2.412C59.163 9.182 75.56.846 82.516.846c4.708 0 15.41 6.549 15.41 17.335 0 8.66-5.972 12.563-9.127 13.414a1.918 1.918 0 0 1-.505.07"></path><path fill="white" d="M88.294 27.812a1.822 1.822 0 0 1-.32-.027c-3.474-.578-9.31-2.1-9.31-5.751a1.926 1.926 0 0 1 3.852 0c.381.423 3.37 1.498 6.094 1.953a1.926 1.926 0 0 1-.316 3.825"></path><path fill="white" d="M7.396 74.04a1.926 1.926 0 0 1-1.926-1.926c0-17.455 33.946-52.006 55.858-52.006 23.835 0 25.04 14.442 25.04 17.335 0 5.416-12.107 17.335-25.04 17.335-13.094 0-38.946 5.078-52.568 18.7a1.942 1.942 0 0 1-1.364.562m53.932-50.08c-17.42 0-45.615 26.592-51.073 43.088 15.031-11.669 38.603-16.122 51.073-16.122 11.172 0 21.188-10.37 21.188-13.483 0-3.163-1.526-13.483-21.188-13.483"></path><path fill="white" d="M11.248 60.557c-2.238 0-3.752-.713-4.51-2.115-1.642-3.047 1.394-7.662 5.597-14.05 1.691-2.573 3.444-5.235 4.942-7.893C23.691 25.1 38.615 12.403 49.771 12.403c2.189 0 3.502.89 4.219 1.637 1.614 1.684 1.568 3.968 1.56 4.222-.046 1.063-.986 1.946-2.007 1.846a1.93 1.93 0 0 1-1.845-1.984c.003-.255-.081-1.002-.501-1.43-.29-.289-.767-.439-1.426-.439-9.388 0-23.375 11.896-29.138 22.136-1.564 2.773-3.352 5.489-5.078 8.12-2.284 3.475-5.724 8.706-5.416 10.1.035-.026.354.093 1.11.093a1.926 1.926 0 0 1 0 3.853"></path><path fill="white" d="M57.476 54.778a1.98 1.98 0 0 1-.774-.162c-.49-.215-12.096-5.323-15.745-7.893-3.86-2.72-4.669-8.64-4.669-13.132a1.926 1.926 0 0 1 3.853 0c0 4.911 1.132 8.644 3.035 9.98 3.333 2.35 14.955 7.467 15.074 7.517a1.926 1.926 0 0 1-.774 3.69"></path><path fill="white" d="M20.88 58.63a1.926 1.926 0 0 1-1.576-3.031c6.094-8.68 17.635-13.915 18.125-14.134a1.927 1.927 0 0 1 1.575 3.517c-.111.05-11.071 5.035-16.545 12.832a1.934 1.934 0 0 1-1.58.816m6.23 30.98a2.527 2.527 0 0 1-1.815-.724c-.736-.74-4.415-5.478-4.415-26.403a1.926 1.926 0 0 1 3.852 0c0 14.558 1.796 20.533 2.74 22.663.508-.805 1.113-2.427 1.113-5.328 0-7.073 3.76-21.095 3.918-21.688a1.927 1.927 0 1 1 3.72 1.001c-.038.143-3.786 14.119-3.786 20.687 0 7.277-3.124 9.138-4.083 9.535a3.232 3.232 0 0 1-1.245.258"></path><path fill="white" d="M15.1 93.301c-3.366 0-9.63 0-9.63-5.778 0-2.543 8.683-7.458 8.768-7.5 2.623-1.314 6.641-7.104 6.641-11.762a1.926 1.926 0 0 1 3.852 0c0 5.994-4.8 13.221-8.767 15.205-2.339 1.168-5.428 3.564-6.557 4.63.347 1.033 1.845 1.353 5.694 1.353 1.783 0 6.02-3.144 8.325-5.266a1.927 1.927 0 1 1 2.615 2.831c-1.14 1.048-7.015 6.287-10.94 6.287M61.328 74.04c-4.145 0-7.015-.91-8.536-2.705-1.299-1.533-1.118-3.093-1.067-3.39a1.857 1.857 0 0 1 .177-.547l7.704-15.409a1.927 1.927 0 1 1 3.448 1.722l-7.489 14.982c.22.439 1.507 1.494 5.763 1.494a1.926 1.926 0 0 1 0 3.853"></path><path fill="white" d="M53.624 70.187a1.926 1.926 0 0 1-.94-3.605c.3-.17 7.4-4.1 12.497-4.1a1.926 1.926 0 0 1 0 3.853c-3.41 0-8.822 2.604-10.617 3.61a1.965 1.965 0 0 1-.94.242M42.067 64.41a1.926 1.926 0 0 1-1.364-3.286l9.63-9.63a1.926 1.926 0 0 1 2.724 2.723l-4.464 4.465c.389-.035.782-.05 1.178-.05a1.926 1.926 0 0 1 0 3.852c-3.332 0-6.81 1.706-6.845 1.726a1.938 1.938 0 0 1-.86.2"></path><path fill="white" d="M45.92 70.187c-4.574 0-5.78-5.038-5.78-7.704a1.926 1.926 0 0 1 1.923-1.922h.004a1.93 1.93 0 0 1 1.926 1.918c0 .035.108 3.856 1.926 3.856a1.926 1.926 0 0 1 0 3.852"></path><circle r=".5" fill="white" transform="translate(84.44 10.48)scale(3.8523)"></circle></svg>
</svg>